M48
; DRILL file KiCad 10.0.1 date 2026-08-16T14:06:32
; FORMAT={-:-/ absolute / inch / decimal}
; #@! TF.CreationDate,2026-08-16T14:06:32-04:00
; #@! TF.GenerationSoftware,Kicad,Pcbnew,10.0.1
; #@! TF.FileFunction,Plated,1,2,PTH
FMAT,2
INCH
; #@! TA.AperFunction,Plated,PTH,ViaDrill
T1C0.0118
; #@! TA.AperFunction,Plated,PTH,ComponentDrill
T2C0.0394
; #@! TA.AperFunction,Plated,PTH,ComponentDrill
T3C0.1260
%
G90
G05
T1
X5.389Y-3.7579
X5.389Y-4.0433
X5.628Y-3.7689
X5.8969Y-3.6929
X6.1906Y-3.8012
X6.224Y-3.7713
X6.285Y-3.9854
X6.4764Y-3.7567
X6.4772Y-4.0425
T2
X5.5323Y-4.0563
X5.6323Y-4.0563
X5.7163Y-3.8685
X5.7323Y-4.0563
X5.7614Y-3.7906
X5.7614Y-3.9465
X5.8065Y-3.8685
X5.8323Y-4.0563
X5.8516Y-3.7906
X5.8516Y-3.9465
X5.8967Y-3.8685
X5.9323Y-4.0563
X5.9417Y-3.7906
X5.9417Y-3.9465
X5.9868Y-3.8685
X6.0319Y-3.7906
X6.0319Y-3.9465
X6.0323Y-4.0563
X6.077Y-3.8685
X6.122Y-3.7906
X6.122Y-3.9465
X6.1323Y-4.0563
X6.2323Y-4.0563
X6.3323Y-4.0563
T3
X5.4402Y-3.8685
X6.424Y-3.8685
M30
