%TF.GenerationSoftware,KiCad,Pcbnew,10.0.1*%
%TF.CreationDate,2026-08-16T14:06:32-04:00*%
%TF.ProjectId,CD-i 450 VGA Add-on,43442d69-2034-4353-9020-564741204164,rev?*%
%TF.SameCoordinates,Original*%
%TF.FileFunction,Copper,L2,Bot*%
%TF.FilePolarity,Positive*%
%FSLAX46Y46*%
G04 Gerber Fmt 4.6, Leading zero omitted, Abs format (unit mm)*
G04 Created by KiCad (PCBNEW 10.0.1) date 2026-08-16 14:06:32*
%MOMM*%
%LPD*%
G01*
G04 APERTURE LIST*
G04 Aperture macros list*
%AMRoundRect*
0 Rectangle with rounded corners*
0 $1 Rounding radius*
0 $2 $3 $4 $5 $6 $7 $8 $9 X,Y pos of 4 corners*
0 Add a 4 corners polygon primitive as box body*
4,1,4,$2,$3,$4,$5,$6,$7,$8,$9,$2,$3,0*
0 Add four circle primitives for the rounded corners*
1,1,$1+$1,$2,$3*
1,1,$1+$1,$4,$5*
1,1,$1+$1,$6,$7*
1,1,$1+$1,$8,$9*
0 Add four rect primitives between the rounded corners*
20,1,$1+$1,$2,$3,$4,$5,0*
20,1,$1+$1,$4,$5,$6,$7,0*
20,1,$1+$1,$6,$7,$8,$9,0*
20,1,$1+$1,$8,$9,$2,$3,0*%
G04 Aperture macros list end*
%TA.AperFunction,ComponentPad*%
%ADD10R,1.700000X1.700000*%
%TD*%
%TA.AperFunction,ComponentPad*%
%ADD11C,1.700000*%
%TD*%
%TA.AperFunction,ComponentPad*%
%ADD12C,4.066000*%
%TD*%
%TA.AperFunction,SMDPad,CuDef*%
%ADD13RoundRect,0.237500X-0.250000X-0.237500X0.250000X-0.237500X0.250000X0.237500X-0.250000X0.237500X0*%
%TD*%
%TA.AperFunction,SMDPad,CuDef*%
%ADD14RoundRect,0.237500X0.250000X0.237500X-0.250000X0.237500X-0.250000X-0.237500X0.250000X-0.237500X0*%
%TD*%
%TA.AperFunction,ViaPad*%
%ADD15C,0.600000*%
%TD*%
%TA.AperFunction,Conductor*%
%ADD16C,0.200000*%
%TD*%
G04 APERTURE END LIST*
D10*
%TO.P,J1,1,Pin_1_1*%
%TO.N,H{slash}CSync*%
X140520000Y-103030000D03*
D11*
%TO.P,J1,2,Pin_2_2*%
%TO.N,VSync*%
X143060000Y-103030000D03*
%TO.P,J1,3,Pin_3_3*%
%TO.N,Red*%
X145600000Y-103030000D03*
%TO.P,J1,4,Pin_4_4*%
%TO.N,Green*%
X148140000Y-103030000D03*
%TO.P,J1,5,Pin_5_5*%
%TO.N,Blue*%
X150680000Y-103030000D03*
%TO.P,J1,6,Pin_6_6*%
%TO.N,GND*%
X153220000Y-103030000D03*
%TO.P,J1,7,Pin_7_7*%
%TO.N,Audio_L*%
X155760000Y-103030000D03*
%TO.P,J1,8,Pin_8_8*%
%TO.N,Audio_R*%
X158300000Y-103030000D03*
%TO.P,J1,9,Pin_9_9*%
%TO.N,/5V*%
X160840000Y-103030000D03*
%TD*%
D10*
%TO.P,P1,1,Red_1*%
%TO.N,Red*%
X146339999Y-100240000D03*
D11*
%TO.P,P1,2,Green_2*%
%TO.N,Green*%
X148629999Y-100240000D03*
%TO.P,P1,3,Blue_3*%
%TO.N,Blue*%
X150919999Y-100240000D03*
%TO.P,P1,4,ID2/RES_4*%
%TO.N,unconnected-(P1-ID2{slash}RES-Pad4)*%
X153209999Y-100240000D03*
%TO.P,P1,5,HSYNC_GND_5*%
%TO.N,GND*%
X155499999Y-100240000D03*
%TO.P,P1,6,Red_GND_6*%
X145194999Y-98260000D03*
%TO.P,P1,7,Green_GND_7*%
X147484999Y-98260000D03*
%TO.P,P1,8,Blue_GND_8*%
X149774999Y-98260000D03*
%TO.P,P1,9,+5V_9*%
%TO.N,/5V_Fused*%
X152064999Y-98260000D03*
%TO.P,P1,10,VSYNC_GND_10*%
%TO.N,GND*%
X154354999Y-98260000D03*
%TO.P,P1,11,ID0/RES_11*%
%TO.N,unconnected-(P1-ID0{slash}RES-Pad11)*%
X146339999Y-96280000D03*
%TO.P,P1,12,ID1/SDA_12*%
%TO.N,Audio_L*%
X148629999Y-96280000D03*
%TO.P,P1,13,HSYNC_13*%
%TO.N,H{slash}CSync*%
X150919999Y-96280000D03*
%TO.P,P1,14,VSYNC_14*%
%TO.N,VSync*%
X153209999Y-96280000D03*
%TO.P,P1,15,ID3/SCL_15*%
%TO.N,Audio_R*%
X155499999Y-96280000D03*
D12*
%TO.P,P1,S1,SHIELD_S1*%
%TO.N,unconnected-(P1-SHIELD-PadS1)*%
X163169999Y-98260000D03*
%TO.P,P1,S2,SHIELD_S2*%
%TO.N,/ESD_GND*%
X138179999Y-98260000D03*
%TD*%
D13*
%TO.P,R1,1*%
%TO.N,/5V_Fused*%
X158090000Y-98260000D03*
%TO.P,R1,2*%
%TO.N,/5V*%
X159915000Y-98260000D03*
%TD*%
D14*
%TO.P,R2,1*%
%TO.N,GND*%
X143230000Y-98260000D03*
%TO.P,R2,2*%
%TO.N,/ESD_GND*%
X141405000Y-98260000D03*
%TD*%
D15*
%TO.N,VSync*%
X149780000Y-93800000D03*
%TO.N,GND*%
X164500000Y-95420000D03*
X157240000Y-96550000D03*
X142950000Y-95730000D03*
X164520000Y-102680000D03*
X159640000Y-101230000D03*
X136880000Y-95450000D03*
X136880000Y-102700000D03*
%TO.N,/5V_Fused*%
X158090000Y-95790000D03*
%TD*%
%TO.N,VSync*%
D16*
X145500000Y-94350000D02*
X142310000Y-97540000D01*
X142310000Y-97540000D02*
X142310000Y-100060000D01*
X149230000Y-94350000D02*
X145500000Y-94350000D01*
X149780000Y-93800000D02*
X149230000Y-94350000D01*
X143050000Y-103020000D02*
X143060000Y-103030000D01*
X143050000Y-100800000D02*
X143050000Y-103020000D01*
X142310000Y-100060000D02*
X143050000Y-100800000D01*
%TO.N,Audio_L*%
X158010000Y-94350000D02*
X159020000Y-95360000D01*
X148629999Y-96280000D02*
X150559999Y-94350000D01*
X150559999Y-94350000D02*
X158010000Y-94350000D01*
X159020000Y-95360000D02*
X159020000Y-99770000D01*
X159020000Y-99770000D02*
X155760000Y-103030000D01*
%TO.N,/5V*%
X160840000Y-103030000D02*
X160840000Y-101000000D01*
X160840000Y-101000000D02*
X159915000Y-100075000D01*
X159915000Y-100075000D02*
X159915000Y-98260000D01*
%TO.N,/5V_Fused*%
X158090000Y-98260000D02*
X158090000Y-95790000D01*
%TO.N,/ESD_GND*%
X141405000Y-98260000D02*
X138179999Y-98260000D01*
%TD*%
%TA.AperFunction,Conductor*%
%TO.N,GND*%
G36*
X149356878Y-93522174D02*
G01*
X149378552Y-93574500D01*
X149368638Y-93611499D01*
X149360203Y-93626108D01*
X149360199Y-93626117D01*
X149329500Y-93740688D01*
X149329500Y-93864159D01*
X149326783Y-93864159D01*
X149314374Y-93910469D01*
X149307992Y-93917746D01*
X149147913Y-94077826D01*
X149095587Y-94099500D01*
X145450172Y-94099500D01*
X145358105Y-94137634D01*
X142097634Y-97398105D01*
X142059500Y-97490170D01*
X142059500Y-97699634D01*
X142037826Y-97751960D01*
X141985500Y-97773634D01*
X141933174Y-97751960D01*
X141885903Y-97704689D01*
X141839522Y-97681057D01*
X141776393Y-97648891D01*
X141776391Y-97648890D01*
X141776390Y-97648890D01*
X141685534Y-97634500D01*
X141124467Y-97634500D01*
X141033605Y-97648891D01*
X141033602Y-97648892D01*
X140924098Y-97704687D01*
X140837189Y-97791596D01*
X140781390Y-97901109D01*
X140774110Y-97947076D01*
X140744517Y-97995367D01*
X140701021Y-98009500D01*
X140414258Y-98009500D01*
X140361932Y-97987826D01*
X140340891Y-97945159D01*
X140326140Y-97833112D01*
X140326138Y-97833103D01*
X140316902Y-97798634D01*
X140252057Y-97556631D01*
X140142522Y-97292191D01*
X139999408Y-97044310D01*
X139902320Y-96917782D01*
X139825168Y-96817234D01*
X139825165Y-96817230D01*
X139622768Y-96614833D01*
X139622764Y-96614830D01*
X139395691Y-96440592D01*
X139395685Y-96440588D01*
X139147807Y-96297476D01*
X139147804Y-96297475D01*
X138883374Y-96187944D01*
X138883361Y-96187940D01*
X138606895Y-96113860D01*
X138606886Y-96113858D01*
X138378798Y-96083831D01*
X138323113Y-96076500D01*
X138036885Y-96076500D01*
X137986174Y-96083176D01*
X137753111Y-96113858D01*
X137753102Y-96113860D01*
X137476636Y-96187940D01*
X137476623Y-96187944D01*
X137212193Y-96297475D01*
X137212190Y-96297476D01*
X136964312Y-96440588D01*
X136964306Y-96440592D01*
X136737233Y-96614830D01*
X136737229Y-96614833D01*
X136534832Y-96817230D01*
X136534829Y-96817234D01*
X136360591Y-97044307D01*
X136360587Y-97044313D01*
X136217475Y-97292191D01*
X136217474Y-97292194D01*
X136107943Y-97556624D01*
X136107939Y-97556637D01*
X136033859Y-97833103D01*
X136033857Y-97833112D01*
X135996499Y-98116887D01*
X135996499Y-98403112D01*
X136033857Y-98686887D01*
X136033859Y-98686896D01*
X136107939Y-98963362D01*
X136107943Y-98963375D01*
X136217474Y-99227805D01*
X136217475Y-99227808D01*
X136360587Y-99475686D01*
X136360591Y-99475692D01*
X136534829Y-99702765D01*
X136534832Y-99702769D01*
X136737229Y-99905166D01*
X136737233Y-99905169D01*
X136964306Y-100079407D01*
X136964312Y-100079411D01*
X137080400Y-100146434D01*
X137212190Y-100222523D01*
X137476630Y-100332058D01*
X137753105Y-100406140D01*
X137753108Y-100406140D01*
X137753111Y-100406141D01*
X137833894Y-100416776D01*
X138036885Y-100443500D01*
X138036887Y-100443500D01*
X138323111Y-100443500D01*
X138323113Y-100443500D01*
X138541750Y-100414716D01*
X138606886Y-100406141D01*
X138606886Y-100406140D01*
X138606893Y-100406140D01*
X138883368Y-100332058D01*
X139147808Y-100222523D01*
X139395689Y-100079409D01*
X139622770Y-99905165D01*
X139825164Y-99702771D01*
X139999408Y-99475690D01*
X140142522Y-99227809D01*
X140252057Y-98963369D01*
X140326139Y-98686894D01*
X140340891Y-98574841D01*
X140369210Y-98525792D01*
X140414258Y-98510500D01*
X140701022Y-98510500D01*
X140753348Y-98532174D01*
X140774111Y-98572925D01*
X140781390Y-98618893D01*
X140781392Y-98618897D01*
X140837187Y-98728401D01*
X140837189Y-98728403D01*
X140924097Y-98815311D01*
X141033607Y-98871109D01*
X141124467Y-98885500D01*
X141685532Y-98885499D01*
X141776393Y-98871109D01*
X141885903Y-98815311D01*
X141933174Y-98768040D01*
X141985500Y-98746366D01*
X142037826Y-98768040D01*
X142059500Y-98820366D01*
X142059500Y-100109829D01*
X142097634Y-100201894D01*
X142097637Y-100201898D01*
X142777826Y-100882087D01*
X142799500Y-100934413D01*
X142799500Y-102005524D01*
X142777826Y-102057850D01*
X142753819Y-102073891D01*
X142586085Y-102143368D01*
X142422218Y-102252860D01*
X142422217Y-102252862D01*
X142282862Y-102392217D01*
X142282860Y-102392218D01*
X142173367Y-102556086D01*
X142097950Y-102738160D01*
X142097947Y-102738170D01*
X142059500Y-102931460D01*
X142059500Y-103128539D01*
X142097947Y-103321829D01*
X142097950Y-103321839D01*
X142173367Y-103503913D01*
X142282860Y-103667781D01*
X142388253Y-103773174D01*
X142409927Y-103825500D01*
X142388253Y-103877826D01*
X142335927Y-103899500D01*
X141594500Y-103899500D01*
X141542174Y-103877826D01*
X141520500Y-103825500D01*
X141520500Y-102165180D01*
X141516161Y-102143367D01*
X141511767Y-102121278D01*
X141478504Y-102071496D01*
X141475889Y-102069749D01*
X141428722Y-102038233D01*
X141384820Y-102029500D01*
X139655180Y-102029500D01*
X139633229Y-102033866D01*
X139611277Y-102038233D01*
X139561496Y-102071495D01*
X139561495Y-102071496D01*
X139528233Y-102121277D01*
X139519500Y-102165180D01*
X139519500Y-103825500D01*
X139497826Y-103877826D01*
X139445500Y-103899500D01*
X136283639Y-103899500D01*
X136276386Y-103899144D01*
X136255832Y-103897119D01*
X136150786Y-103886773D01*
X136136559Y-103883943D01*
X136019284Y-103848368D01*
X136005882Y-103842816D01*
X135897808Y-103785049D01*
X135885746Y-103776990D01*
X135791013Y-103699244D01*
X135780755Y-103688986D01*
X135703009Y-103594253D01*
X135694950Y-103582191D01*
X135637183Y-103474117D01*
X135631631Y-103460715D01*
X135622344Y-103430099D01*
X135596055Y-103343435D01*
X135593227Y-103329217D01*
X135580856Y-103203614D01*
X135580500Y-103196361D01*
X135580500Y-94203638D01*
X135580856Y-94196385D01*
X135584391Y-94160491D01*
X135593227Y-94070780D01*
X135596054Y-94056566D01*
X135631632Y-93939280D01*
X135637183Y-93925882D01*
X135645422Y-93910469D01*
X135694950Y-93817807D01*
X135703009Y-93805746D01*
X135756399Y-93740691D01*
X135780756Y-93711011D01*
X135791013Y-93700755D01*
X135885746Y-93623009D01*
X135897808Y-93614950D01*
X136005885Y-93557181D01*
X136019280Y-93551632D01*
X136136566Y-93516054D01*
X136150780Y-93513227D01*
X136276386Y-93500856D01*
X136283639Y-93500500D01*
X136327594Y-93500500D01*
X149304552Y-93500500D01*
X149356878Y-93522174D01*
G37*
%TD.AperFunction*%
%TA.AperFunction,Conductor*%
G36*
X165083614Y-93500856D02*
G01*
X165209217Y-93513227D01*
X165223435Y-93516055D01*
X165340715Y-93551631D01*
X165354117Y-93557183D01*
X165462191Y-93614950D01*
X165474253Y-93623009D01*
X165568986Y-93700755D01*
X165579244Y-93711013D01*
X165656990Y-93805746D01*
X165665049Y-93817808D01*
X165722816Y-93925882D01*
X165728368Y-93939284D01*
X165763943Y-94056559D01*
X165766773Y-94070786D01*
X165779144Y-94196384D01*
X165779500Y-94203638D01*
X165779500Y-103196361D01*
X165779144Y-103203614D01*
X165779144Y-103203615D01*
X165766773Y-103329213D01*
X165763943Y-103343440D01*
X165728368Y-103460715D01*
X165722816Y-103474117D01*
X165665049Y-103582191D01*
X165656990Y-103594253D01*
X165579244Y-103688986D01*
X165568986Y-103699244D01*
X165474253Y-103776990D01*
X165462191Y-103785049D01*
X165354117Y-103842816D01*
X165340715Y-103848368D01*
X165223440Y-103883943D01*
X165209213Y-103886773D01*
X165099418Y-103897587D01*
X165083613Y-103899144D01*
X165076361Y-103899500D01*
X161564073Y-103899500D01*
X161511747Y-103877826D01*
X161490073Y-103825500D01*
X161511747Y-103773174D01*
X161617138Y-103667783D01*
X161617139Y-103667782D01*
X161726632Y-103503914D01*
X161802051Y-103321835D01*
X161840500Y-103128541D01*
X161840500Y-102931459D01*
X161802051Y-102738165D01*
X161726632Y-102556086D01*
X161617139Y-102392218D01*
X161477782Y-102252861D01*
X161380891Y-102188120D01*
X161313913Y-102143367D01*
X161136182Y-102069749D01*
X161096133Y-102029701D01*
X161090500Y-102001382D01*
X161090500Y-101058448D01*
X161090501Y-101058439D01*
X161090501Y-100950173D01*
X161060515Y-100877782D01*
X161052364Y-100858104D01*
X161052364Y-100858103D01*
X160981897Y-100787636D01*
X160981895Y-100787635D01*
X160187174Y-99992913D01*
X160165500Y-99940587D01*
X160165500Y-98953458D01*
X160187174Y-98901132D01*
X160227925Y-98880369D01*
X160286393Y-98871109D01*
X160286397Y-98871107D01*
X160395901Y-98815312D01*
X160395900Y-98815312D01*
X160395903Y-98815311D01*
X160482811Y-98728403D01*
X160538609Y-98618893D01*
X160553000Y-98528033D01*
X160552999Y-98116887D01*
X160986499Y-98116887D01*
X160986499Y-98403112D01*
X161023857Y-98686887D01*
X161023859Y-98686896D01*
X161097939Y-98963362D01*
X161097943Y-98963375D01*
X161207474Y-99227805D01*
X161207475Y-99227808D01*
X161350587Y-99475686D01*
X161350591Y-99475692D01*
X161524829Y-99702765D01*
X161524832Y-99702769D01*
X161727229Y-99905166D01*
X161727233Y-99905169D01*
X161954306Y-100079407D01*
X161954312Y-100079411D01*
X162070400Y-100146434D01*
X162202190Y-100222523D01*
X162466630Y-100332058D01*
X162743105Y-100406140D01*
X162743108Y-100406140D01*
X162743111Y-100406141D01*
X162823894Y-100416776D01*
X163026885Y-100443500D01*
X163026887Y-100443500D01*
X163313111Y-100443500D01*
X163313113Y-100443500D01*
X163531750Y-100414716D01*
X163596886Y-100406141D01*
X163596886Y-100406140D01*
X163596893Y-100406140D01*
X163873368Y-100332058D01*
X164137808Y-100222523D01*
X164385689Y-100079409D01*
X164612770Y-99905165D01*
X164815164Y-99702771D01*
X164989408Y-99475690D01*
X165132522Y-99227809D01*
X165242057Y-98963369D01*
X165316139Y-98686894D01*
X165353499Y-98403114D01*
X165353499Y-98116886D01*
X165325092Y-97901109D01*
X165316140Y-97833112D01*
X165316138Y-97833103D01*
X165306902Y-97798634D01*
X165242057Y-97556631D01*
X165132522Y-97292191D01*
X164989408Y-97044310D01*
X164892320Y-96917782D01*
X164815168Y-96817234D01*
X164815165Y-96817230D01*
X164612768Y-96614833D01*
X164612764Y-96614830D01*
X164385691Y-96440592D01*
X164385685Y-96440588D01*
X164137807Y-96297476D01*
X164137804Y-96297475D01*
X163873374Y-96187944D01*
X163873361Y-96187940D01*
X163596895Y-96113860D01*
X163596886Y-96113858D01*
X163368798Y-96083831D01*
X163313113Y-96076500D01*
X163026885Y-96076500D01*
X162976174Y-96083176D01*
X162743111Y-96113858D01*
X162743102Y-96113860D01*
X162466636Y-96187940D01*
X162466623Y-96187944D01*
X162202193Y-96297475D01*
X162202190Y-96297476D01*
X161954312Y-96440588D01*
X161954306Y-96440592D01*
X161727233Y-96614830D01*
X161727229Y-96614833D01*
X161524832Y-96817230D01*
X161524829Y-96817234D01*
X161350591Y-97044307D01*
X161350587Y-97044313D01*
X161207475Y-97292191D01*
X161207474Y-97292194D01*
X161097943Y-97556624D01*
X161097939Y-97556637D01*
X161023859Y-97833103D01*
X161023857Y-97833112D01*
X160986499Y-98116887D01*
X160552999Y-98116887D01*
X160552999Y-97991968D01*
X160538609Y-97901107D01*
X160538608Y-97901105D01*
X160538607Y-97901102D01*
X160482812Y-97791598D01*
X160395903Y-97704689D01*
X160349522Y-97681057D01*
X160286393Y-97648891D01*
X160286391Y-97648890D01*
X160286390Y-97648890D01*
X160195534Y-97634500D01*
X159634467Y-97634500D01*
X159543605Y-97648891D01*
X159543602Y-97648892D01*
X159434098Y-97704687D01*
X159396826Y-97741960D01*
X159344500Y-97763634D01*
X159292174Y-97741960D01*
X159270500Y-97689634D01*
X159270500Y-95418448D01*
X159270501Y-95418439D01*
X159270501Y-95310173D01*
X159232364Y-95218104D01*
X159232364Y-95218103D01*
X159161897Y-95147636D01*
X159161895Y-95147635D01*
X158151897Y-94137636D01*
X158151894Y-94137634D01*
X158059828Y-94099500D01*
X150609827Y-94099500D01*
X150510171Y-94099500D01*
X150418104Y-94137634D01*
X150418100Y-94137637D01*
X149180210Y-95375526D01*
X149127884Y-95397200D01*
X149099566Y-95391567D01*
X148921838Y-95317950D01*
X148921828Y-95317947D01*
X148792387Y-95292200D01*
X148728540Y-95279500D01*
X148531458Y-95279500D01*
X148476661Y-95290399D01*
X148338169Y-95317947D01*
X148338159Y-95317950D01*
X148156085Y-95393367D01*
X147992217Y-95502860D01*
X147992216Y-95502862D01*
X147852861Y-95642217D01*
X147852859Y-95642218D01*
X147743366Y-95806086D01*
X147667949Y-95988160D01*
X147667946Y-95988170D01*
X147629499Y-96181460D01*
X147629499Y-96378539D01*
X147667946Y-96571829D01*
X147667949Y-96571839D01*
X147743366Y-96753913D01*
X147785673Y-96817229D01*
X147852860Y-96917782D01*
X147992217Y-97057139D01*
X148156085Y-97166632D01*
X148338164Y-97242051D01*
X148531458Y-97280500D01*
X148531460Y-97280500D01*
X148728538Y-97280500D01*
X148728540Y-97280500D01*
X148921834Y-97242051D01*
X149103913Y-97166632D01*
X149267781Y-97057139D01*
X149407138Y-96917782D01*
X149516631Y-96753914D01*
X149592050Y-96571835D01*
X149630499Y-96378541D01*
X149630499Y-96181460D01*
X149919499Y-96181460D01*
X149919499Y-96378539D01*
X149957946Y-96571829D01*
X149957949Y-96571839D01*
X150033366Y-96753913D01*
X150075673Y-96817229D01*
X150142860Y-96917782D01*
X150282217Y-97057139D01*
X150446085Y-97166632D01*
X150628164Y-97242051D01*
X150821458Y-97280500D01*
X150821460Y-97280500D01*
X151018538Y-97280500D01*
X151018540Y-97280500D01*
X151211834Y-97242051D01*
X151393913Y-97166632D01*
X151557781Y-97057139D01*
X151697138Y-96917782D01*
X151806631Y-96753914D01*
X151882050Y-96571835D01*
X151920499Y-96378541D01*
X151920499Y-96181460D01*
X152209499Y-96181460D01*
X152209499Y-96378539D01*
X152247946Y-96571829D01*
X152247949Y-96571839D01*
X152323366Y-96753913D01*
X152365673Y-96817229D01*
X152432860Y-96917782D01*
X152572217Y-97057139D01*
X152736085Y-97166632D01*
X152918164Y-97242051D01*
X153111458Y-97280500D01*
X153111460Y-97280500D01*
X153308538Y-97280500D01*
X153308540Y-97280500D01*
X153501834Y-97242051D01*
X153683913Y-97166632D01*
X153847781Y-97057139D01*
X153987138Y-96917782D01*
X154096631Y-96753914D01*
X154172050Y-96571835D01*
X154210499Y-96378541D01*
X154210499Y-96181460D01*
X154499499Y-96181460D01*
X154499499Y-96378539D01*
X154537946Y-96571829D01*
X154537949Y-96571839D01*
X154613366Y-96753913D01*
X154655673Y-96817229D01*
X154722860Y-96917782D01*
X154862217Y-97057139D01*
X155026085Y-97166632D01*
X155208164Y-97242051D01*
X155401458Y-97280500D01*
X155401460Y-97280500D01*
X155598538Y-97280500D01*
X155598540Y-97280500D01*
X155791834Y-97242051D01*
X155973913Y-97166632D01*
X156137781Y-97057139D01*
X156277138Y-96917782D01*
X156386631Y-96753914D01*
X156462050Y-96571835D01*
X156500499Y-96378541D01*
X156500499Y-96181459D01*
X156462050Y-95988165D01*
X156386631Y-95806086D01*
X156277138Y-95642218D01*
X156137781Y-95502861D01*
X156125137Y-95494412D01*
X155973912Y-95393367D01*
X155791838Y-95317950D01*
X155791828Y-95317947D01*
X155662387Y-95292200D01*
X155598540Y-95279500D01*
X155401458Y-95279500D01*
X155346661Y-95290399D01*
X155208169Y-95317947D01*
X155208159Y-95317950D01*
X155026085Y-95393367D01*
X154862217Y-95502860D01*
X154862216Y-95502862D01*
X154722861Y-95642217D01*
X154722859Y-95642218D01*
X154613366Y-95806086D01*
X154537949Y-95988160D01*
X154537946Y-95988170D01*
X154499499Y-96181460D01*
X154210499Y-96181460D01*
X154210499Y-96181459D01*
X154172050Y-95988165D01*
X154096631Y-95806086D01*
X153987138Y-95642218D01*
X153847781Y-95502861D01*
X153835137Y-95494412D01*
X153683912Y-95393367D01*
X153501838Y-95317950D01*
X153501828Y-95317947D01*
X153372387Y-95292200D01*
X153308540Y-95279500D01*
X153111458Y-95279500D01*
X153056661Y-95290399D01*
X152918169Y-95317947D01*
X152918159Y-95317950D01*
X152736085Y-95393367D01*
X152572217Y-95502860D01*
X152572216Y-95502862D01*
X152432861Y-95642217D01*
X152432859Y-95642218D01*
X152323366Y-95806086D01*
X152247949Y-95988160D01*
X152247946Y-95988170D01*
X152209499Y-96181460D01*
X151920499Y-96181460D01*
X151920499Y-96181459D01*
X151882050Y-95988165D01*
X151806631Y-95806086D01*
X151697138Y-95642218D01*
X151557781Y-95502861D01*
X151545137Y-95494412D01*
X151393912Y-95393367D01*
X151211838Y-95317950D01*
X151211828Y-95317947D01*
X151082387Y-95292200D01*
X151018540Y-95279500D01*
X150821458Y-95279500D01*
X150766661Y-95290399D01*
X150628169Y-95317947D01*
X150628159Y-95317950D01*
X150446085Y-95393367D01*
X150282217Y-95502860D01*
X150282216Y-95502862D01*
X150142861Y-95642217D01*
X150142859Y-95642218D01*
X150033366Y-95806086D01*
X149957949Y-95988160D01*
X149957946Y-95988170D01*
X149919499Y-96181460D01*
X149630499Y-96181460D01*
X149630499Y-96181459D01*
X149592050Y-95988165D01*
X149581994Y-95963887D01*
X149518431Y-95810430D01*
X149518431Y-95753793D01*
X149534469Y-95729789D01*
X150642086Y-94622174D01*
X150694412Y-94600500D01*
X157875587Y-94600500D01*
X157927913Y-94622174D01*
X158747826Y-95442086D01*
X158769500Y-95494412D01*
X158769500Y-97724634D01*
X158747826Y-97776960D01*
X158695500Y-97798634D01*
X158643174Y-97776960D01*
X158570903Y-97704689D01*
X158524522Y-97681057D01*
X158461393Y-97648891D01*
X158461391Y-97648890D01*
X158461390Y-97648890D01*
X158402923Y-97639630D01*
X158354632Y-97610037D01*
X158340500Y-97566541D01*
X158340500Y-96207019D01*
X158362174Y-96154693D01*
X158364082Y-96153019D01*
X158366610Y-96150490D01*
X158366613Y-96150489D01*
X158450489Y-96066613D01*
X158509799Y-95963886D01*
X158540499Y-95849311D01*
X158540500Y-95849311D01*
X158540500Y-95730689D01*
X158540499Y-95730688D01*
X158540257Y-95729786D01*
X158509799Y-95616114D01*
X158450489Y-95513387D01*
X158366613Y-95429511D01*
X158366610Y-95429509D01*
X158366609Y-95429508D01*
X158263887Y-95370201D01*
X158263882Y-95370199D01*
X158149311Y-95339500D01*
X158149309Y-95339500D01*
X158030691Y-95339500D01*
X158030689Y-95339500D01*
X157916117Y-95370199D01*
X157916112Y-95370201D01*
X157813390Y-95429508D01*
X157729508Y-95513390D01*
X157670201Y-95616112D01*
X157670199Y-95616117D01*
X157639500Y-95730688D01*
X157639500Y-95849311D01*
X157670199Y-95963882D01*
X157670201Y-95963887D01*
X157729508Y-96066609D01*
X157729509Y-96066610D01*
X157729511Y-96066613D01*
X157776756Y-96113858D01*
X157816817Y-96153919D01*
X157814893Y-96155842D01*
X157838866Y-96197349D01*
X157839500Y-96207019D01*
X157839500Y-97566541D01*
X157817826Y-97618867D01*
X157777077Y-97639630D01*
X157718605Y-97648891D01*
X157718602Y-97648892D01*
X157609098Y-97704687D01*
X157522189Y-97791596D01*
X157466390Y-97901109D01*
X157452000Y-97991965D01*
X157452000Y-98528032D01*
X157466391Y-98618894D01*
X157466392Y-98618897D01*
X157522187Y-98728401D01*
X157522189Y-98728403D01*
X157609097Y-98815311D01*
X157718607Y-98871109D01*
X157809467Y-98885500D01*
X158370532Y-98885499D01*
X158461393Y-98871109D01*
X158570903Y-98815311D01*
X158643174Y-98743040D01*
X158695500Y-98721366D01*
X158747826Y-98743040D01*
X158769500Y-98795366D01*
X158769500Y-99635586D01*
X158747826Y-99687912D01*
X156310211Y-102125526D01*
X156257885Y-102147200D01*
X156229567Y-102141567D01*
X156051839Y-102067950D01*
X156051829Y-102067947D01*
X155902444Y-102038233D01*
X155858541Y-102029500D01*
X155661459Y-102029500D01*
X155617556Y-102038233D01*
X155468170Y-102067947D01*
X155468160Y-102067950D01*
X155286086Y-102143367D01*
X155122218Y-102252860D01*
X155122217Y-102252862D01*
X154982862Y-102392217D01*
X154982860Y-102392218D01*
X154873367Y-102556086D01*
X154797950Y-102738160D01*
X154797947Y-102738170D01*
X154759500Y-102931460D01*
X154759500Y-103128539D01*
X154797947Y-103321829D01*
X154797950Y-103321839D01*
X154873367Y-103503913D01*
X154982860Y-103667781D01*
X155088253Y-103773174D01*
X155109927Y-103825500D01*
X155088253Y-103877826D01*
X155035927Y-103899500D01*
X153869382Y-103899500D01*
X153817056Y-103877826D01*
X153795382Y-103825500D01*
X153795738Y-103818247D01*
X153798941Y-103785717D01*
X153473953Y-103460729D01*
X153527007Y-103430099D01*
X153620099Y-103337007D01*
X153650729Y-103283953D01*
X153975717Y-103608941D01*
X153975718Y-103608941D01*
X154061880Y-103479991D01*
X154133490Y-103307109D01*
X154133493Y-103307099D01*
X154170000Y-103123565D01*
X154170000Y-102936434D01*
X154133493Y-102752900D01*
X154133490Y-102752890D01*
X154061881Y-102580010D01*
X153975717Y-102451057D01*
X153650728Y-102776045D01*
X153620099Y-102722993D01*
X153527007Y-102629901D01*
X153473952Y-102599269D01*
X153798941Y-102274281D01*
X153798941Y-102274280D01*
X153669993Y-102188120D01*
X153497109Y-102116509D01*
X153497099Y-102116506D01*
X153313565Y-102080000D01*
X153126435Y-102080000D01*
X152942900Y-102116506D01*
X152942890Y-102116509D01*
X152770006Y-102188120D01*
X152641057Y-102274281D01*
X152966046Y-102599270D01*
X152912993Y-102629901D01*
X152819901Y-102722993D01*
X152789270Y-102776046D01*
X152464281Y-102451057D01*
X152378120Y-102580006D01*
X152306509Y-102752890D01*
X152306506Y-102752900D01*
X152270000Y-102936434D01*
X152270000Y-103123565D01*
X152306506Y-103307099D01*
X152306509Y-103307109D01*
X152378120Y-103479993D01*
X152464281Y-103608941D01*
X152789269Y-103283952D01*
X152819901Y-103337007D01*
X152912993Y-103430099D01*
X152966045Y-103460729D01*
X152641057Y-103785717D01*
X152644261Y-103818247D01*
X152627820Y-103872445D01*
X152577870Y-103899144D01*
X152570617Y-103899500D01*
X151404073Y-103899500D01*
X151351747Y-103877826D01*
X151330073Y-103825500D01*
X151351747Y-103773174D01*
X151457138Y-103667783D01*
X151457139Y-103667782D01*
X151566632Y-103503914D01*
X151642051Y-103321835D01*
X151680500Y-103128541D01*
X151680500Y-102931459D01*
X151642051Y-102738165D01*
X151566632Y-102556086D01*
X151457139Y-102392218D01*
X151317782Y-102252861D01*
X151220891Y-102188120D01*
X151153913Y-102143367D01*
X150971839Y-102067950D01*
X150971829Y-102067947D01*
X150822444Y-102038233D01*
X150778541Y-102029500D01*
X150581459Y-102029500D01*
X150537556Y-102038233D01*
X150388170Y-102067947D01*
X150388160Y-102067950D01*
X150206086Y-102143367D01*
X150042218Y-102252860D01*
X150042217Y-102252862D01*
X149902862Y-102392217D01*
X149902860Y-102392218D01*
X149793367Y-102556086D01*
X149717950Y-102738160D01*
X149717947Y-102738170D01*
X149679500Y-102931460D01*
X149679500Y-103128539D01*
X149717947Y-103321829D01*
X149717950Y-103321839D01*
X149793367Y-103503913D01*
X149902860Y-103667781D01*
X150008253Y-103773174D01*
X150029927Y-103825500D01*
X150008253Y-103877826D01*
X149955927Y-103899500D01*
X148864073Y-103899500D01*
X148811747Y-103877826D01*
X148790073Y-103825500D01*
X148811747Y-103773174D01*
X148917138Y-103667783D01*
X148917139Y-103667782D01*
X149026632Y-103503914D01*
X149102051Y-103321835D01*
X149140500Y-103128541D01*
X149140500Y-102931459D01*
X149102051Y-102738165D01*
X149026632Y-102556086D01*
X148917139Y-102392218D01*
X148777782Y-102252861D01*
X148680891Y-102188120D01*
X148613913Y-102143367D01*
X148431839Y-102067950D01*
X148431829Y-102067947D01*
X148282444Y-102038233D01*
X148238541Y-102029500D01*
X148041459Y-102029500D01*
X147997556Y-102038233D01*
X147848170Y-102067947D01*
X147848160Y-102067950D01*
X147666086Y-102143367D01*
X147502218Y-102252860D01*
X147502217Y-102252862D01*
X147362862Y-102392217D01*
X147362860Y-102392218D01*
X147253367Y-102556086D01*
X147177950Y-102738160D01*
X147177947Y-102738170D01*
X147139500Y-102931460D01*
X147139500Y-103128539D01*
X147177947Y-103321829D01*
X147177950Y-103321839D01*
X147253367Y-103503913D01*
X147362860Y-103667781D01*
X147468253Y-103773174D01*
X147489927Y-103825500D01*
X147468253Y-103877826D01*
X147415927Y-103899500D01*
X146324073Y-103899500D01*
X146271747Y-103877826D01*
X146250073Y-103825500D01*
X146271747Y-103773174D01*
X146377138Y-103667783D01*
X146377139Y-103667782D01*
X146486632Y-103503914D01*
X146562051Y-103321835D01*
X146600500Y-103128541D01*
X146600500Y-102931459D01*
X146562051Y-102738165D01*
X146486632Y-102556086D01*
X146377139Y-102392218D01*
X146237782Y-102252861D01*
X146140891Y-102188120D01*
X146073913Y-102143367D01*
X145891839Y-102067950D01*
X145891829Y-102067947D01*
X145742444Y-102038233D01*
X145698541Y-102029500D01*
X145501459Y-102029500D01*
X145457556Y-102038233D01*
X145308170Y-102067947D01*
X145308160Y-102067950D01*
X145126086Y-102143367D01*
X144962218Y-102252860D01*
X144962217Y-102252862D01*
X144822862Y-102392217D01*
X144822860Y-102392218D01*
X144713367Y-102556086D01*
X144637950Y-102738160D01*
X144637947Y-102738170D01*
X144599500Y-102931460D01*
X144599500Y-103128539D01*
X144637947Y-103321829D01*
X144637950Y-103321839D01*
X144713367Y-103503913D01*
X144822860Y-103667781D01*
X144928253Y-103773174D01*
X144949927Y-103825500D01*
X144928253Y-103877826D01*
X144875927Y-103899500D01*
X143784073Y-103899500D01*
X143731747Y-103877826D01*
X143710073Y-103825500D01*
X143731747Y-103773174D01*
X143837138Y-103667783D01*
X143837139Y-103667782D01*
X143946632Y-103503914D01*
X144022051Y-103321835D01*
X144060500Y-103128541D01*
X144060500Y-102931459D01*
X144022051Y-102738165D01*
X143946632Y-102556086D01*
X143837139Y-102392218D01*
X143697782Y-102252861D01*
X143600891Y-102188120D01*
X143533913Y-102143367D01*
X143348477Y-102066558D01*
X143349085Y-102065089D01*
X143309226Y-102032356D01*
X143300500Y-101997494D01*
X143300500Y-100750172D01*
X143300499Y-100750170D01*
X143285481Y-100713914D01*
X143262364Y-100658103D01*
X143191897Y-100587636D01*
X142582174Y-99977913D01*
X142560500Y-99925587D01*
X142560500Y-98730262D01*
X142582174Y-98677936D01*
X142634500Y-98656262D01*
X142686826Y-98677936D01*
X142694787Y-98689307D01*
X142695560Y-98688767D01*
X142699270Y-98694066D01*
X142783430Y-98778226D01*
X142891303Y-98828529D01*
X142891302Y-98828529D01*
X142940455Y-98834999D01*
X143105000Y-98834999D01*
X143355000Y-98834999D01*
X143519544Y-98834999D01*
X143568701Y-98828528D01*
X143676568Y-98778227D01*
X143760726Y-98694069D01*
X143811029Y-98586196D01*
X143817500Y-98537044D01*
X143817500Y-98385000D01*
X143355000Y-98385000D01*
X143355000Y-98834999D01*
X143105000Y-98834999D01*
X143105000Y-98166434D01*
X144244999Y-98166434D01*
X144244999Y-98353565D01*
X144281505Y-98537099D01*
X144281508Y-98537109D01*
X144353119Y-98709993D01*
X144439280Y-98838941D01*
X144764268Y-98513952D01*
X144794900Y-98567007D01*
X144887992Y-98660099D01*
X144941044Y-98690729D01*
X144616056Y-99015717D01*
X144745010Y-99101881D01*
X144745009Y-99101881D01*
X144917889Y-99173490D01*
X144917899Y-99173493D01*
X145101434Y-99210000D01*
X145290823Y-99210000D01*
X145343149Y-99231674D01*
X145364823Y-99284000D01*
X145352352Y-99325112D01*
X145348232Y-99331277D01*
X145348232Y-99331278D01*
X145339499Y-99375180D01*
X145339499Y-101104820D01*
X145348232Y-101148722D01*
X145381495Y-101198504D01*
X145431277Y-101231767D01*
X145475179Y-101240500D01*
X145475180Y-101240500D01*
X147204818Y-101240500D01*
X147204819Y-101240500D01*
X147248721Y-101231767D01*
X147298503Y-101198504D01*
X147331766Y-101148722D01*
X147340499Y-101104820D01*
X147340499Y-100141460D01*
X147629499Y-100141460D01*
X147629499Y-100338539D01*
X147667946Y-100531829D01*
X147667949Y-100531839D01*
X147743366Y-100713913D01*
X147839712Y-100858104D01*
X147852860Y-100877782D01*
X147992217Y-101017139D01*
X148156085Y-101126632D01*
X148338164Y-101202051D01*
X148531458Y-101240500D01*
X148531460Y-101240500D01*
X148728538Y-101240500D01*
X148728540Y-101240500D01*
X148921834Y-101202051D01*
X149103913Y-101126632D01*
X149267781Y-101017139D01*
X149407138Y-100877782D01*
X149516631Y-100713914D01*
X149592050Y-100531835D01*
X149630499Y-100338541D01*
X149630499Y-100141460D01*
X149919499Y-100141460D01*
X149919499Y-100338539D01*
X149957946Y-100531829D01*
X149957949Y-100531839D01*
X150033366Y-100713913D01*
X150129712Y-100858104D01*
X150142860Y-100877782D01*
X150282217Y-101017139D01*
X150446085Y-101126632D01*
X150628164Y-101202051D01*
X150821458Y-101240500D01*
X150821460Y-101240500D01*
X151018538Y-101240500D01*
X151018540Y-101240500D01*
X151211834Y-101202051D01*
X151393913Y-101126632D01*
X151557781Y-101017139D01*
X151697138Y-100877782D01*
X151806631Y-100713914D01*
X151882050Y-100531835D01*
X151920499Y-100338541D01*
X151920499Y-100141460D01*
X152209499Y-100141460D01*
X152209499Y-100338539D01*
X152247946Y-100531829D01*
X152247949Y-100531839D01*
X152323366Y-100713913D01*
X152419712Y-100858104D01*
X152432860Y-100877782D01*
X152572217Y-101017139D01*
X152736085Y-101126632D01*
X152918164Y-101202051D01*
X153111458Y-101240500D01*
X153111460Y-101240500D01*
X153308538Y-101240500D01*
X153308540Y-101240500D01*
X153501834Y-101202051D01*
X153683913Y-101126632D01*
X153847781Y-101017139D01*
X153987138Y-100877782D01*
X154096631Y-100713914D01*
X154172050Y-100531835D01*
X154210499Y-100338541D01*
X154210499Y-100146434D01*
X154549999Y-100146434D01*
X154549999Y-100333565D01*
X154586505Y-100517099D01*
X154586508Y-100517109D01*
X154658119Y-100689993D01*
X154744280Y-100818941D01*
X155069268Y-100493952D01*
X155099900Y-100547007D01*
X155192992Y-100640099D01*
X155246044Y-100670729D01*
X154921056Y-100995717D01*
X155050010Y-101081881D01*
X155050009Y-101081881D01*
X155222889Y-101153490D01*
X155222899Y-101153493D01*
X155406434Y-101190000D01*
X155593564Y-101190000D01*
X155777098Y-101153493D01*
X155777108Y-101153490D01*
X155949990Y-101081880D01*
X156078940Y-100995718D01*
X156078940Y-100995717D01*
X155753952Y-100670729D01*
X155807006Y-100640099D01*
X155900098Y-100547007D01*
X155930728Y-100493953D01*
X156255716Y-100818941D01*
X156255717Y-100818941D01*
X156341879Y-100689991D01*
X156413489Y-100517109D01*
X156413492Y-100517099D01*
X156449999Y-100333565D01*
X156449999Y-100146434D01*
X156413492Y-99962900D01*
X156413489Y-99962890D01*
X156341880Y-99790010D01*
X156255716Y-99661057D01*
X155930727Y-99986045D01*
X155900098Y-99932993D01*
X155807006Y-99839901D01*
X155753951Y-99809269D01*
X156078940Y-99484281D01*
X156078940Y-99484280D01*
X155949992Y-99398120D01*
X155777108Y-99326509D01*
X155777098Y-99326506D01*
X155593564Y-99290000D01*
X155406434Y-99290000D01*
X155222899Y-99326506D01*
X155222889Y-99326509D01*
X155050005Y-99398120D01*
X154921056Y-99484281D01*
X155246045Y-99809270D01*
X155192992Y-99839901D01*
X155099900Y-99932993D01*
X155069269Y-99986046D01*
X154744280Y-99661057D01*
X154658119Y-99790006D01*
X154586508Y-99962890D01*
X154586505Y-99962900D01*
X154549999Y-100146434D01*
X154210499Y-100146434D01*
X154210499Y-100141459D01*
X154172050Y-99948165D01*
X154118891Y-99819828D01*
X154096631Y-99766086D01*
X153987138Y-99602218D01*
X153847780Y-99462860D01*
X153683912Y-99353367D01*
X153501838Y-99277950D01*
X153501828Y-99277947D01*
X153352443Y-99248233D01*
X153308540Y-99239500D01*
X153111458Y-99239500D01*
X153067555Y-99248233D01*
X152918169Y-99277947D01*
X152918159Y-99277950D01*
X152736085Y-99353367D01*
X152572217Y-99462860D01*
X152572216Y-99462862D01*
X152432861Y-99602217D01*
X152432859Y-99602218D01*
X152323366Y-99766086D01*
X152247949Y-99948160D01*
X152247946Y-99948170D01*
X152209499Y-100141460D01*
X151920499Y-100141460D01*
X151920499Y-100141459D01*
X151882050Y-99948165D01*
X151828891Y-99819828D01*
X151806631Y-99766086D01*
X151697138Y-99602218D01*
X151557780Y-99462860D01*
X151393912Y-99353367D01*
X151211838Y-99277950D01*
X151211828Y-99277947D01*
X151062443Y-99248233D01*
X151018540Y-99239500D01*
X150821458Y-99239500D01*
X150777555Y-99248233D01*
X150628169Y-99277947D01*
X150628159Y-99277950D01*
X150446085Y-99353367D01*
X150282217Y-99462860D01*
X150282216Y-99462862D01*
X150142861Y-99602217D01*
X150142859Y-99602218D01*
X150033366Y-99766086D01*
X149957949Y-99948160D01*
X149957946Y-99948170D01*
X149919499Y-100141460D01*
X149630499Y-100141460D01*
X149630499Y-100141459D01*
X149592050Y-99948165D01*
X149538891Y-99819828D01*
X149516631Y-99766086D01*
X149407138Y-99602218D01*
X149267780Y-99462860D01*
X149103912Y-99353367D01*
X148921838Y-99277950D01*
X148921828Y-99277947D01*
X148772443Y-99248233D01*
X148728540Y-99239500D01*
X148531458Y-99239500D01*
X148487555Y-99248233D01*
X148338169Y-99277947D01*
X148338159Y-99277950D01*
X148156085Y-99353367D01*
X147992217Y-99462860D01*
X147992216Y-99462862D01*
X147852861Y-99602217D01*
X147852859Y-99602218D01*
X147743366Y-99766086D01*
X147667949Y-99948160D01*
X147667946Y-99948170D01*
X147629499Y-100141460D01*
X147340499Y-100141460D01*
X147340499Y-99375180D01*
X147331766Y-99331278D01*
X147327645Y-99325111D01*
X147316597Y-99269563D01*
X147348063Y-99222471D01*
X147389175Y-99210000D01*
X147578564Y-99210000D01*
X147762098Y-99173493D01*
X147762108Y-99173490D01*
X147934990Y-99101880D01*
X148063940Y-99015718D01*
X148063940Y-99015717D01*
X147738952Y-98690729D01*
X147792006Y-98660099D01*
X147885098Y-98567007D01*
X147915728Y-98513953D01*
X148240716Y-98838941D01*
X148240717Y-98838941D01*
X148326879Y-98709991D01*
X148398489Y-98537109D01*
X148398492Y-98537099D01*
X148434999Y-98353565D01*
X148434999Y-98166434D01*
X148824999Y-98166434D01*
X148824999Y-98353565D01*
X148861505Y-98537099D01*
X148861508Y-98537109D01*
X148933119Y-98709993D01*
X149019280Y-98838941D01*
X149344268Y-98513952D01*
X149374900Y-98567007D01*
X149467992Y-98660099D01*
X149521044Y-98690729D01*
X149196056Y-99015717D01*
X149325010Y-99101881D01*
X149325009Y-99101881D01*
X149497889Y-99173490D01*
X149497899Y-99173493D01*
X149681434Y-99210000D01*
X149868564Y-99210000D01*
X150052098Y-99173493D01*
X150052108Y-99173490D01*
X150224990Y-99101880D01*
X150353940Y-99015718D01*
X150353940Y-99015717D01*
X150028952Y-98690729D01*
X150082006Y-98660099D01*
X150175098Y-98567007D01*
X150205728Y-98513953D01*
X150530716Y-98838941D01*
X150530717Y-98838941D01*
X150616879Y-98709991D01*
X150688489Y-98537109D01*
X150688492Y-98537099D01*
X150724999Y-98353565D01*
X150724999Y-98166439D01*
X150724998Y-98166430D01*
X150724009Y-98161460D01*
X151064499Y-98161460D01*
X151064499Y-98358539D01*
X151102946Y-98551829D01*
X151102949Y-98551839D01*
X151178366Y-98733913D01*
X151287859Y-98897781D01*
X151427217Y-99037139D01*
X151591085Y-99146632D01*
X151720649Y-99200299D01*
X151773164Y-99222051D01*
X151966458Y-99260500D01*
X151966460Y-99260500D01*
X152163538Y-99260500D01*
X152163540Y-99260500D01*
X152356834Y-99222051D01*
X152538913Y-99146632D01*
X152702781Y-99037139D01*
X152842138Y-98897782D01*
X152951631Y-98733914D01*
X153027050Y-98551835D01*
X153065499Y-98358541D01*
X153065499Y-98166434D01*
X153404999Y-98166434D01*
X153404999Y-98353565D01*
X153441505Y-98537099D01*
X153441508Y-98537109D01*
X153513119Y-98709993D01*
X153599280Y-98838941D01*
X153924268Y-98513952D01*
X153954900Y-98567007D01*
X154047992Y-98660099D01*
X154101044Y-98690729D01*
X153776056Y-99015717D01*
X153905010Y-99101881D01*
X153905009Y-99101881D01*
X154077889Y-99173490D01*
X154077899Y-99173493D01*
X154261434Y-99210000D01*
X154448564Y-99210000D01*
X154632098Y-99173493D01*
X154632108Y-99173490D01*
X154804990Y-99101880D01*
X154933940Y-99015718D01*
X154933940Y-99015717D01*
X154608952Y-98690729D01*
X154662006Y-98660099D01*
X154755098Y-98567007D01*
X154785728Y-98513953D01*
X155110716Y-98838941D01*
X155110717Y-98838941D01*
X155196879Y-98709991D01*
X155268489Y-98537109D01*
X155268492Y-98537099D01*
X155304999Y-98353565D01*
X155304999Y-98166434D01*
X155268492Y-97982900D01*
X155268489Y-97982890D01*
X155196880Y-97810010D01*
X155110716Y-97681057D01*
X154785727Y-98006045D01*
X154755098Y-97952993D01*
X154662006Y-97859901D01*
X154608951Y-97829269D01*
X154933940Y-97504281D01*
X154933940Y-97504280D01*
X154804992Y-97418120D01*
X154632108Y-97346509D01*
X154632098Y-97346506D01*
X154448564Y-97310000D01*
X154261434Y-97310000D01*
X154077899Y-97346506D01*
X154077889Y-97346509D01*
X153905005Y-97418120D01*
X153776056Y-97504281D01*
X154101045Y-97829270D01*
X154047992Y-97859901D01*
X153954900Y-97952993D01*
X153924269Y-98006046D01*
X153599280Y-97681057D01*
X153513119Y-97810006D01*
X153441508Y-97982890D01*
X153441505Y-97982900D01*
X153404999Y-98166434D01*
X153065499Y-98166434D01*
X153065499Y-98161459D01*
X153027050Y-97968165D01*
X152951631Y-97786086D01*
X152842138Y-97622218D01*
X152702781Y-97482861D01*
X152605890Y-97418120D01*
X152538912Y-97373367D01*
X152356838Y-97297950D01*
X152356828Y-97297947D01*
X152227387Y-97272200D01*
X152163540Y-97259500D01*
X151966458Y-97259500D01*
X151911661Y-97270399D01*
X151773169Y-97297947D01*
X151773159Y-97297950D01*
X151591085Y-97373367D01*
X151427217Y-97482860D01*
X151427216Y-97482862D01*
X151287861Y-97622217D01*
X151287859Y-97622218D01*
X151178366Y-97786086D01*
X151102949Y-97968160D01*
X151102946Y-97968170D01*
X151064499Y-98161460D01*
X150724009Y-98161460D01*
X150688492Y-97982900D01*
X150688489Y-97982890D01*
X150616880Y-97810010D01*
X150530716Y-97681057D01*
X150205727Y-98006045D01*
X150175098Y-97952993D01*
X150082006Y-97859901D01*
X150028951Y-97829269D01*
X150353940Y-97504281D01*
X150353940Y-97504280D01*
X150224992Y-97418120D01*
X150052108Y-97346509D01*
X150052098Y-97346506D01*
X149868564Y-97310000D01*
X149681434Y-97310000D01*
X149497899Y-97346506D01*
X149497889Y-97346509D01*
X149325005Y-97418120D01*
X149196056Y-97504281D01*
X149521045Y-97829270D01*
X149467992Y-97859901D01*
X149374900Y-97952993D01*
X149344269Y-98006046D01*
X149019280Y-97681057D01*
X148933119Y-97810006D01*
X148861508Y-97982890D01*
X148861505Y-97982900D01*
X148824999Y-98166434D01*
X148434999Y-98166434D01*
X148398492Y-97982900D01*
X148398489Y-97982890D01*
X148326880Y-97810010D01*
X148240716Y-97681057D01*
X147915727Y-98006045D01*
X147885098Y-97952993D01*
X147792006Y-97859901D01*
X147738951Y-97829269D01*
X148063940Y-97504281D01*
X148063940Y-97504280D01*
X147934992Y-97418120D01*
X147762108Y-97346509D01*
X147762098Y-97346506D01*
X147578564Y-97310000D01*
X147391434Y-97310000D01*
X147207899Y-97346506D01*
X147207889Y-97346509D01*
X147035005Y-97418120D01*
X146906056Y-97504281D01*
X147231045Y-97829270D01*
X147177992Y-97859901D01*
X147084900Y-97952993D01*
X147054269Y-98006046D01*
X146729280Y-97681057D01*
X146643119Y-97810006D01*
X146571508Y-97982890D01*
X146571505Y-97982900D01*
X146534999Y-98166434D01*
X146534999Y-98353565D01*
X146571505Y-98537099D01*
X146571508Y-98537109D01*
X146643119Y-98709993D01*
X146729280Y-98838941D01*
X147054268Y-98513952D01*
X147084900Y-98567007D01*
X147177992Y-98660099D01*
X147231044Y-98690729D01*
X146906056Y-99015717D01*
X147038028Y-99103898D01*
X147036626Y-99105995D01*
X147067839Y-99143927D01*
X147062360Y-99200299D01*
X147018626Y-99236286D01*
X146997053Y-99239500D01*
X145682946Y-99239500D01*
X145630620Y-99217826D01*
X145608946Y-99165500D01*
X145630620Y-99113174D01*
X145642359Y-99104479D01*
X145641971Y-99103898D01*
X145773940Y-99015718D01*
X145773940Y-99015717D01*
X145448952Y-98690729D01*
X145502006Y-98660099D01*
X145595098Y-98567007D01*
X145625728Y-98513953D01*
X145950716Y-98838941D01*
X145950717Y-98838941D01*
X146036879Y-98709991D01*
X146108489Y-98537109D01*
X146108492Y-98537099D01*
X146144999Y-98353565D01*
X146144999Y-98166434D01*
X146108492Y-97982900D01*
X146108489Y-97982890D01*
X146036880Y-97810010D01*
X145950716Y-97681057D01*
X145625727Y-98006045D01*
X145595098Y-97952993D01*
X145502006Y-97859901D01*
X145448951Y-97829269D01*
X145773940Y-97504281D01*
X145773940Y-97504280D01*
X145644992Y-97418120D01*
X145472108Y-97346509D01*
X145472098Y-97346506D01*
X145288564Y-97310000D01*
X145101434Y-97310000D01*
X144917899Y-97346506D01*
X144917889Y-97346509D01*
X144745005Y-97418120D01*
X144616056Y-97504281D01*
X144941045Y-97829270D01*
X144887992Y-97859901D01*
X144794900Y-97952993D01*
X144764269Y-98006046D01*
X144439280Y-97681057D01*
X144353119Y-97810006D01*
X144281508Y-97982890D01*
X144281505Y-97982900D01*
X144244999Y-98166434D01*
X143105000Y-98166434D01*
X143105000Y-98135000D01*
X143355000Y-98135000D01*
X143817499Y-98135000D01*
X143817499Y-97982956D01*
X143811028Y-97933798D01*
X143760727Y-97825931D01*
X143676569Y-97741773D01*
X143568696Y-97691470D01*
X143568697Y-97691470D01*
X143519544Y-97685000D01*
X143355000Y-97685000D01*
X143355000Y-98135000D01*
X143105000Y-98135000D01*
X143105000Y-97685000D01*
X142940456Y-97685000D01*
X142891298Y-97691471D01*
X142783431Y-97741772D01*
X142699270Y-97825933D01*
X142695560Y-97831233D01*
X142692646Y-97829192D01*
X142659785Y-97859283D01*
X142603203Y-97856793D01*
X142564954Y-97815022D01*
X142560500Y-97789737D01*
X142560500Y-97674413D01*
X142582174Y-97622087D01*
X144022801Y-96181460D01*
X145339499Y-96181460D01*
X145339499Y-96378539D01*
X145377946Y-96571829D01*
X145377949Y-96571839D01*
X145453366Y-96753913D01*
X145495673Y-96817229D01*
X145562860Y-96917782D01*
X145702217Y-97057139D01*
X145866085Y-97166632D01*
X146048164Y-97242051D01*
X146241458Y-97280500D01*
X146241460Y-97280500D01*
X146438538Y-97280500D01*
X146438540Y-97280500D01*
X146631834Y-97242051D01*
X146813913Y-97166632D01*
X146977781Y-97057139D01*
X147117138Y-96917782D01*
X147226631Y-96753914D01*
X147302050Y-96571835D01*
X147340499Y-96378541D01*
X147340499Y-96181459D01*
X147302050Y-95988165D01*
X147226631Y-95806086D01*
X147117138Y-95642218D01*
X146977781Y-95502861D01*
X146965137Y-95494412D01*
X146813912Y-95393367D01*
X146631838Y-95317950D01*
X146631828Y-95317947D01*
X146502387Y-95292200D01*
X146438540Y-95279500D01*
X146241458Y-95279500D01*
X146186661Y-95290399D01*
X146048169Y-95317947D01*
X146048159Y-95317950D01*
X145866085Y-95393367D01*
X145702217Y-95502860D01*
X145702216Y-95502862D01*
X145562861Y-95642217D01*
X145562859Y-95642218D01*
X145453366Y-95806086D01*
X145377949Y-95988160D01*
X145377946Y-95988170D01*
X145339499Y-96181460D01*
X144022801Y-96181460D01*
X145582087Y-94622174D01*
X145634413Y-94600500D01*
X149279827Y-94600500D01*
X149279828Y-94600500D01*
X149371897Y-94562364D01*
X149662253Y-94272006D01*
X149714578Y-94250333D01*
X149717111Y-94250500D01*
X149720691Y-94250500D01*
X149839311Y-94250500D01*
X149839311Y-94250499D01*
X149953886Y-94219799D01*
X150056613Y-94160489D01*
X150140489Y-94076613D01*
X150199799Y-93973886D01*
X150230499Y-93859311D01*
X150230500Y-93859311D01*
X150230500Y-93740689D01*
X150230499Y-93740688D01*
X150199800Y-93626117D01*
X150199796Y-93626108D01*
X150191362Y-93611499D01*
X150183970Y-93555347D01*
X150218449Y-93510414D01*
X150255448Y-93500500D01*
X165032406Y-93500500D01*
X165076361Y-93500500D01*
X165083614Y-93500856D01*
G37*
%TD.AperFunction*%
%TA.AperFunction,Conductor*%
G36*
X159396826Y-98778040D02*
G01*
X159434097Y-98815311D01*
X159543607Y-98871109D01*
X159602076Y-98880369D01*
X159650367Y-98909961D01*
X159664500Y-98953458D01*
X159664500Y-100124829D01*
X159702634Y-100216894D01*
X159702636Y-100216897D01*
X160143844Y-100658105D01*
X160567826Y-101082086D01*
X160589500Y-101134412D01*
X160589500Y-102001382D01*
X160567826Y-102053708D01*
X160543818Y-102069749D01*
X160366086Y-102143367D01*
X160202218Y-102252860D01*
X160202217Y-102252862D01*
X160062862Y-102392217D01*
X160062860Y-102392218D01*
X159953367Y-102556086D01*
X159877950Y-102738160D01*
X159877947Y-102738170D01*
X159839500Y-102931460D01*
X159839500Y-103128539D01*
X159877947Y-103321829D01*
X159877950Y-103321839D01*
X159953367Y-103503913D01*
X160062860Y-103667781D01*
X160168253Y-103773174D01*
X160189927Y-103825500D01*
X160168253Y-103877826D01*
X160115927Y-103899500D01*
X159024073Y-103899500D01*
X158971747Y-103877826D01*
X158950073Y-103825500D01*
X158971747Y-103773174D01*
X159077138Y-103667783D01*
X159077139Y-103667782D01*
X159186632Y-103503914D01*
X159262051Y-103321835D01*
X159300500Y-103128541D01*
X159300500Y-102931459D01*
X159262051Y-102738165D01*
X159186632Y-102556086D01*
X159077139Y-102392218D01*
X158937782Y-102252861D01*
X158840891Y-102188120D01*
X158773913Y-102143367D01*
X158591839Y-102067950D01*
X158591829Y-102067947D01*
X158442444Y-102038233D01*
X158398541Y-102029500D01*
X158201459Y-102029500D01*
X158157556Y-102038233D01*
X158008170Y-102067947D01*
X158008160Y-102067950D01*
X157826086Y-102143367D01*
X157662218Y-102252860D01*
X157662217Y-102252862D01*
X157522862Y-102392217D01*
X157522860Y-102392218D01*
X157413367Y-102556086D01*
X157337950Y-102738160D01*
X157337947Y-102738170D01*
X157299500Y-102931460D01*
X157299500Y-103128539D01*
X157337947Y-103321829D01*
X157337950Y-103321839D01*
X157413367Y-103503913D01*
X157522860Y-103667781D01*
X157628253Y-103773174D01*
X157649927Y-103825500D01*
X157628253Y-103877826D01*
X157575927Y-103899500D01*
X156484073Y-103899500D01*
X156431747Y-103877826D01*
X156410073Y-103825500D01*
X156431747Y-103773174D01*
X156537138Y-103667783D01*
X156537139Y-103667782D01*
X156646632Y-103503914D01*
X156722051Y-103321835D01*
X156760500Y-103128541D01*
X156760500Y-102931459D01*
X156722051Y-102738165D01*
X156656542Y-102580010D01*
X156648432Y-102560430D01*
X156648432Y-102503793D01*
X156664470Y-102479789D01*
X159232364Y-99911897D01*
X159270500Y-99819828D01*
X159270500Y-99720172D01*
X159270500Y-98830366D01*
X159292174Y-98778040D01*
X159344500Y-98756366D01*
X159396826Y-98778040D01*
G37*
%TD.AperFunction*%
%TD*%
M02*
