%TF.GenerationSoftware,KiCad,Pcbnew,10.0.1*%
%TF.CreationDate,2026-08-16T14:06:32-04:00*%
%TF.ProjectId,CD-i 450 VGA Add-on,43442d69-2034-4353-9020-564741204164,rev?*%
%TF.SameCoordinates,Original*%
%TF.FileFunction,Legend,Top*%
%TF.FilePolarity,Positive*%
%FSLAX46Y46*%
G04 Gerber Fmt 4.6, Leading zero omitted, Abs format (unit mm)*
G04 Created by KiCad (PCBNEW 10.0.1) date 2026-08-16 14:06:32*
%MOMM*%
%LPD*%
G01*
G04 APERTURE LIST*
%ADD10C,0.100000*%
%ADD11C,0.150000*%
%ADD12C,0.120000*%
%ADD13R,1.700000X1.700000*%
%ADD14C,1.700000*%
%ADD15C,4.066000*%
G04 APERTURE END LIST*
D10*
X143910000Y-93250000D02*
X156840000Y-93250000D01*
X156840000Y-101350000D01*
X143910000Y-101350000D01*
X143910000Y-93250000D01*
G36*
X145808822Y-93597733D02*
G01*
X145502175Y-95095430D01*
X145313223Y-95095430D01*
X145008683Y-93597733D01*
X145235462Y-93597733D01*
X145405547Y-94643154D01*
X145409760Y-94643154D01*
X145581951Y-93597733D01*
X145808822Y-93597733D01*
G37*
G36*
X145923677Y-93948252D02*
G01*
X145931894Y-93861488D01*
X145955185Y-93788609D01*
X145992384Y-93724384D01*
X146039174Y-93673021D01*
X146092865Y-93634211D01*
X146153663Y-93605793D01*
X146218386Y-93588350D01*
X146282898Y-93582621D01*
X146347333Y-93588326D01*
X146412041Y-93605702D01*
X146473208Y-93634004D01*
X146528636Y-93672838D01*
X146573802Y-93723945D01*
X146610519Y-93788151D01*
X146633812Y-93860928D01*
X146642026Y-93947520D01*
X146642026Y-94023082D01*
X146427795Y-94023082D01*
X146427795Y-93947703D01*
X146422385Y-93897911D01*
X146407715Y-93860958D01*
X146384747Y-93833672D01*
X146338016Y-93806287D01*
X146282898Y-93797035D01*
X146227714Y-93806332D01*
X146180957Y-93833855D01*
X146157990Y-93861255D01*
X146143318Y-93898331D01*
X146137909Y-93948252D01*
X146137909Y-94738592D01*
X146143316Y-94788515D01*
X146157986Y-94825625D01*
X146180957Y-94853080D01*
X146227707Y-94880533D01*
X146282898Y-94889808D01*
X146337989Y-94880475D01*
X146384747Y-94852806D01*
X146407699Y-94825171D01*
X146422379Y-94787768D01*
X146427795Y-94737401D01*
X146427795Y-94453560D01*
X146257618Y-94453560D01*
X146257618Y-94265982D01*
X146642026Y-94265982D01*
X146642026Y-94737767D01*
X146633657Y-94828135D01*
X146610519Y-94899883D01*
X146573823Y-94962205D01*
X146528636Y-95011533D01*
X146473059Y-95052197D01*
X146412041Y-95081051D01*
X146347329Y-95098496D01*
X146282898Y-95104223D01*
X146218383Y-95098516D01*
X146153663Y-95081142D01*
X146093005Y-95052213D01*
X146039174Y-95011716D01*
X145992355Y-94962399D01*
X145955185Y-94900341D01*
X145932042Y-94828705D01*
X145923677Y-94738592D01*
X145923677Y-93948252D01*
G37*
G36*
X147580193Y-95095430D02*
G01*
X147365962Y-95095430D01*
X147302947Y-94770099D01*
X147011047Y-94770099D01*
X146948123Y-95095430D01*
X146733892Y-95095430D01*
X146850837Y-94570797D01*
X147048874Y-94570797D01*
X147263105Y-94570797D01*
X147158050Y-94028578D01*
X147153837Y-94028578D01*
X147048874Y-94570797D01*
X146850837Y-94570797D01*
X147067741Y-93597733D01*
X147246252Y-93597733D01*
X147580193Y-95095430D01*
G37*
G36*
X148073503Y-95092500D02*
G01*
X148073503Y-93597733D01*
X148712442Y-93597733D01*
X148712442Y-93797035D01*
X148287734Y-93797035D01*
X148287734Y-94254258D01*
X148656755Y-94254258D01*
X148656755Y-94453560D01*
X148287734Y-94453560D01*
X148287734Y-95092500D01*
X148073503Y-95092500D01*
G37*
G36*
X149173404Y-94020437D02*
G01*
X149235702Y-94039202D01*
X149291537Y-94069471D01*
X149337643Y-94108628D01*
X149383755Y-94175970D01*
X149411893Y-94254256D01*
X149421723Y-94346490D01*
X149421723Y-94641139D01*
X148997016Y-94641139D01*
X148997016Y-94785395D01*
X149004569Y-94830915D01*
X149025409Y-94862606D01*
X149057790Y-94882630D01*
X149102345Y-94889808D01*
X149141138Y-94885162D01*
X149166859Y-94873030D01*
X149183312Y-94854363D01*
X149199534Y-94818253D01*
X149207492Y-94783288D01*
X149421723Y-94783288D01*
X149411554Y-94873382D01*
X149382692Y-94947710D01*
X149335536Y-95009793D01*
X149289593Y-95048918D01*
X149234603Y-95079036D01*
X149173259Y-95097707D01*
X149102254Y-95104223D01*
X149036073Y-95099203D01*
X148979498Y-95084972D01*
X148930887Y-95062274D01*
X148868415Y-95013145D01*
X148822626Y-94950808D01*
X148803490Y-94906556D01*
X148791119Y-94854271D01*
X148782784Y-94734470D01*
X148782784Y-94383676D01*
X148785142Y-94349788D01*
X148997016Y-94349788D01*
X148997016Y-94471146D01*
X149207492Y-94471146D01*
X149207492Y-94349788D01*
X149199662Y-94294395D01*
X149179099Y-94258746D01*
X149146466Y-94236242D01*
X149102345Y-94228338D01*
X149058066Y-94236249D01*
X149025409Y-94258746D01*
X149004846Y-94294395D01*
X148997016Y-94349788D01*
X148785142Y-94349788D01*
X148791119Y-94263875D01*
X148803490Y-94211591D01*
X148822626Y-94167338D01*
X148868419Y-94105020D01*
X148930887Y-94055963D01*
X148979504Y-94033214D01*
X149036078Y-94018953D01*
X149102254Y-94013923D01*
X149173404Y-94020437D01*
G37*
G36*
X149577062Y-95092500D02*
G01*
X149577062Y-94025647D01*
X149791293Y-94025647D01*
X149791293Y-94129145D01*
X149795415Y-94129145D01*
X149832515Y-94083108D01*
X149875924Y-94046438D01*
X149927650Y-94022575D01*
X149996274Y-94013923D01*
X150060898Y-94022719D01*
X150111221Y-94047445D01*
X150153767Y-94083104D01*
X150186600Y-94120627D01*
X150228679Y-94079672D01*
X150274528Y-94045339D01*
X150328541Y-94022628D01*
X150408434Y-94013923D01*
X150448200Y-94017250D01*
X150490042Y-94027570D01*
X150529607Y-94045580D01*
X150565421Y-94072816D01*
X150595259Y-94108035D01*
X150619826Y-94153783D01*
X150635093Y-94206431D01*
X150640709Y-94274591D01*
X150640709Y-95092500D01*
X150426477Y-95092500D01*
X150426477Y-94354550D01*
X150419141Y-94300119D01*
X150399367Y-94262043D01*
X150367334Y-94237099D01*
X150322247Y-94228338D01*
X150283985Y-94233138D01*
X150257245Y-94245985D01*
X150238899Y-94266256D01*
X150222477Y-94309045D01*
X150216001Y-94375525D01*
X150216001Y-95092500D01*
X150001770Y-95092500D01*
X150001770Y-94354550D01*
X149994433Y-94300119D01*
X149974659Y-94262043D01*
X149942564Y-94237092D01*
X149897539Y-94228338D01*
X149859278Y-94233138D01*
X149832538Y-94245985D01*
X149814191Y-94266256D01*
X149797770Y-94309045D01*
X149791293Y-94375525D01*
X149791293Y-95092500D01*
X149577062Y-95092500D01*
G37*
G36*
X151184958Y-94019284D02*
G01*
X151245393Y-94034989D01*
X151300780Y-94061303D01*
X151348525Y-94097912D01*
X151385815Y-94144348D01*
X151415844Y-94203059D01*
X151434458Y-94269336D01*
X151441123Y-94350062D01*
X151441123Y-95091675D01*
X151226892Y-95091675D01*
X151226892Y-94983323D01*
X151222679Y-94983323D01*
X151178676Y-95036651D01*
X151137407Y-95072991D01*
X151088558Y-95095613D01*
X151016232Y-95104223D01*
X150939387Y-95092591D01*
X150901985Y-95076508D01*
X150864649Y-95049635D01*
X150833206Y-95015055D01*
X150806672Y-94964547D01*
X150790695Y-94904385D01*
X150784599Y-94820657D01*
X150786416Y-94780357D01*
X150998830Y-94780357D01*
X151006679Y-94836839D01*
X151028414Y-94878909D01*
X151063270Y-94906970D01*
X151110754Y-94916645D01*
X151160423Y-94907368D01*
X151196209Y-94881016D01*
X151218562Y-94840094D01*
X151226892Y-94780357D01*
X151226892Y-94635735D01*
X151167724Y-94629415D01*
X151101831Y-94637876D01*
X151048381Y-94661930D01*
X151022159Y-94687559D01*
X151005226Y-94725477D01*
X150998830Y-94780357D01*
X150786416Y-94780357D01*
X150788539Y-94733257D01*
X150799345Y-94662205D01*
X150820871Y-94598462D01*
X150854116Y-94547716D01*
X150897787Y-94509794D01*
X150957339Y-94481495D01*
X151027398Y-94465515D01*
X151123760Y-94459422D01*
X151146841Y-94459422D01*
X151170014Y-94461529D01*
X151195293Y-94463635D01*
X151226892Y-94465742D01*
X151226892Y-94354459D01*
X151220700Y-94303084D01*
X151203628Y-94264058D01*
X151185289Y-94245127D01*
X151158240Y-94232935D01*
X151119181Y-94228338D01*
X151079037Y-94235082D01*
X151042153Y-94255632D01*
X151013960Y-94288260D01*
X150996723Y-94335499D01*
X150788812Y-94335499D01*
X150803983Y-94243918D01*
X150836347Y-94167903D01*
X150885623Y-94104323D01*
X150931456Y-94067025D01*
X150986557Y-94038103D01*
X151048019Y-94020187D01*
X151119181Y-94013923D01*
X151184958Y-94019284D01*
G37*
G36*
X151584738Y-93597733D02*
G01*
X151798970Y-93597733D01*
X151798970Y-94793913D01*
X151805538Y-94848881D01*
X151821043Y-94876986D01*
X151849226Y-94893801D01*
X151904208Y-94905379D01*
X151904208Y-95107154D01*
X151832561Y-95104089D01*
X151771767Y-95095522D01*
X151716488Y-95078163D01*
X151670925Y-95050368D01*
X151634538Y-95013204D01*
X151606812Y-94961066D01*
X151590893Y-94898250D01*
X151584738Y-94808567D01*
X151584738Y-93597733D01*
G37*
G36*
X152359308Y-94020437D02*
G01*
X152421606Y-94039202D01*
X152477441Y-94069471D01*
X152523547Y-94108628D01*
X152569659Y-94175970D01*
X152597797Y-94254256D01*
X152607627Y-94346490D01*
X152607627Y-94641139D01*
X152182919Y-94641139D01*
X152182919Y-94785395D01*
X152190473Y-94830915D01*
X152211313Y-94862606D01*
X152243693Y-94882630D01*
X152288249Y-94889808D01*
X152327042Y-94885162D01*
X152352763Y-94873030D01*
X152369216Y-94854363D01*
X152385438Y-94818253D01*
X152393396Y-94783288D01*
X152607627Y-94783288D01*
X152597458Y-94873382D01*
X152568595Y-94947710D01*
X152521440Y-95009793D01*
X152475497Y-95048918D01*
X152420507Y-95079036D01*
X152359162Y-95097707D01*
X152288158Y-95104223D01*
X152221976Y-95099203D01*
X152165402Y-95084972D01*
X152116791Y-95062274D01*
X152054319Y-95013145D01*
X152008530Y-94950808D01*
X151989394Y-94906556D01*
X151977023Y-94854271D01*
X151968688Y-94734470D01*
X151968688Y-94383676D01*
X151971046Y-94349788D01*
X152182919Y-94349788D01*
X152182919Y-94471146D01*
X152393396Y-94471146D01*
X152393396Y-94349788D01*
X152385565Y-94294395D01*
X152365002Y-94258746D01*
X152332370Y-94236242D01*
X152288249Y-94228338D01*
X152243970Y-94236249D01*
X152211313Y-94258746D01*
X152190750Y-94294395D01*
X152182919Y-94349788D01*
X151971046Y-94349788D01*
X151977023Y-94263875D01*
X151989394Y-94211591D01*
X152008530Y-94167338D01*
X152054323Y-94105020D01*
X152116791Y-94055963D01*
X152165408Y-94033214D01*
X152221982Y-94018953D01*
X152288158Y-94013923D01*
X152359308Y-94020437D01*
G37*
G36*
X153859402Y-94026105D02*
G01*
X153645171Y-94026105D01*
X153645171Y-93977745D01*
X153636204Y-93908055D01*
X153610549Y-93850616D01*
X153583459Y-93821707D01*
X153545879Y-93803664D01*
X153494137Y-93797035D01*
X153452894Y-93801599D01*
X153422879Y-93813888D01*
X153398065Y-93832902D01*
X153378824Y-93855837D01*
X153364803Y-93884684D01*
X153355743Y-93917844D01*
X153349423Y-93990293D01*
X153352537Y-94063932D01*
X153368383Y-94116505D01*
X153383562Y-94137751D01*
X153405019Y-94156439D01*
X153471148Y-94189961D01*
X153634821Y-94255174D01*
X153701487Y-94286047D01*
X153750226Y-94319288D01*
X153789831Y-94359196D01*
X153819469Y-94404376D01*
X153838582Y-94457157D01*
X153850976Y-94518956D01*
X153859402Y-94664952D01*
X153854507Y-94757577D01*
X153840443Y-94840532D01*
X153815161Y-94916756D01*
X153779535Y-94978102D01*
X153728985Y-95030220D01*
X153663764Y-95070609D01*
X153587394Y-95095236D01*
X153489283Y-95104223D01*
X153413531Y-95097286D01*
X153344203Y-95076929D01*
X153281256Y-95044029D01*
X153228523Y-95001183D01*
X153185348Y-94949136D01*
X153151861Y-94888801D01*
X153130699Y-94822451D01*
X153123468Y-94749033D01*
X153123468Y-94669166D01*
X153337700Y-94669166D01*
X153337700Y-94736485D01*
X153346378Y-94792355D01*
X153372413Y-94842547D01*
X153399083Y-94867693D01*
X153436742Y-94883804D01*
X153489283Y-94889808D01*
X153540685Y-94885365D01*
X153574646Y-94874055D01*
X153601772Y-94854853D01*
X153621998Y-94828900D01*
X153635176Y-94797384D01*
X153641965Y-94758467D01*
X153645171Y-94667059D01*
X153640958Y-94570430D01*
X153634250Y-94534799D01*
X153624196Y-94509431D01*
X153607183Y-94488523D01*
X153585362Y-94471695D01*
X153521340Y-94440096D01*
X153368199Y-94376990D01*
X153281092Y-94331976D01*
X153221024Y-94281898D01*
X153182361Y-94226781D01*
X153157191Y-94162718D01*
X153141004Y-94085462D01*
X153135192Y-93992399D01*
X153141046Y-93909914D01*
X153158273Y-93832756D01*
X153187564Y-93761498D01*
X153227516Y-93702513D01*
X153277106Y-93653749D01*
X153339806Y-93615227D01*
X153412305Y-93591238D01*
X153502472Y-93582621D01*
X153579703Y-93590170D01*
X153648376Y-93612113D01*
X153710500Y-93646535D01*
X153762774Y-93689874D01*
X153817199Y-93761651D01*
X153848805Y-93837919D01*
X153859402Y-93920958D01*
X153859402Y-94026105D01*
G37*
G36*
X153992484Y-93597733D02*
G01*
X154206716Y-93597733D01*
X154206716Y-94793913D01*
X154213284Y-94848881D01*
X154228789Y-94876986D01*
X154256972Y-94893801D01*
X154311954Y-94905379D01*
X154311954Y-95107154D01*
X154240307Y-95104089D01*
X154179513Y-95095522D01*
X154124234Y-95078163D01*
X154078671Y-95050368D01*
X154042284Y-95013204D01*
X154014558Y-94961066D01*
X153998639Y-94898250D01*
X153992484Y-94808567D01*
X153992484Y-93597733D01*
G37*
G36*
X154394019Y-95092500D02*
G01*
X154394019Y-94025647D01*
X154608251Y-94025647D01*
X154608251Y-95092500D01*
X154394019Y-95092500D01*
G37*
G36*
X154394019Y-93812148D02*
G01*
X154394019Y-93597733D01*
X154608251Y-93597733D01*
X154608251Y-93812148D01*
X154394019Y-93812148D01*
G37*
G36*
X154783831Y-95092500D02*
G01*
X154783831Y-94025647D01*
X154998062Y-94025647D01*
X154998062Y-94129145D01*
X155002184Y-94129145D01*
X155039284Y-94083108D01*
X155082693Y-94046438D01*
X155134419Y-94022575D01*
X155203043Y-94013923D01*
X155267667Y-94022719D01*
X155317990Y-94047445D01*
X155360536Y-94083104D01*
X155393369Y-94120627D01*
X155435448Y-94079672D01*
X155481297Y-94045339D01*
X155535310Y-94022628D01*
X155615203Y-94013923D01*
X155654969Y-94017250D01*
X155696811Y-94027570D01*
X155736376Y-94045580D01*
X155772190Y-94072816D01*
X155802028Y-94108035D01*
X155826595Y-94153783D01*
X155841862Y-94206431D01*
X155847478Y-94274591D01*
X155847478Y-95092500D01*
X155633246Y-95092500D01*
X155633246Y-94354550D01*
X155625910Y-94300119D01*
X155606136Y-94262043D01*
X155574103Y-94237099D01*
X155529016Y-94228338D01*
X155490754Y-94233138D01*
X155464014Y-94245985D01*
X155445668Y-94266256D01*
X155429246Y-94309045D01*
X155422770Y-94375525D01*
X155422770Y-95092500D01*
X155208539Y-95092500D01*
X155208539Y-94354550D01*
X155201202Y-94300119D01*
X155181428Y-94262043D01*
X155149333Y-94237092D01*
X155104308Y-94228338D01*
X155066047Y-94233138D01*
X155039307Y-94245985D01*
X155020960Y-94266256D01*
X155004539Y-94309045D01*
X154998062Y-94375525D01*
X154998062Y-95092500D01*
X154783831Y-95092500D01*
G37*
D11*
G36*
X162963180Y-97182554D02*
G01*
X163010203Y-97193877D01*
X163052435Y-97214741D01*
X163091658Y-97248282D01*
X163122508Y-97290560D01*
X163142216Y-97339690D01*
X163152317Y-97396665D01*
X163156321Y-97481351D01*
X163154196Y-97545753D01*
X163148566Y-97594435D01*
X163136507Y-97638966D01*
X163115532Y-97680958D01*
X163080932Y-97724471D01*
X163036642Y-97757040D01*
X163002726Y-97771411D01*
X162960238Y-97780793D01*
X162907254Y-97784212D01*
X162834104Y-97784212D01*
X162834104Y-98175001D01*
X162691283Y-98175001D01*
X162691283Y-97651344D01*
X162834104Y-97651344D01*
X162904018Y-97651344D01*
X162945343Y-97647769D01*
X162972406Y-97638704D01*
X162993669Y-97623413D01*
X163008127Y-97603533D01*
X163016502Y-97580851D01*
X163019545Y-97551571D01*
X163019545Y-97482755D01*
X163019545Y-97416016D01*
X163016577Y-97385702D01*
X163008188Y-97360512D01*
X162994014Y-97339405D01*
X162974238Y-97323997D01*
X162948737Y-97314946D01*
X162909086Y-97311358D01*
X162834104Y-97311358D01*
X162834104Y-97651344D01*
X162691283Y-97651344D01*
X162691283Y-97178490D01*
X162906216Y-97178490D01*
X162963180Y-97182554D01*
G37*
G36*
X163409357Y-98175001D02*
G01*
X163409357Y-97329676D01*
X163266719Y-97434639D01*
X163266719Y-97283453D01*
X163409357Y-97178490D01*
X163552178Y-97178490D01*
X163552178Y-98175001D01*
X163409357Y-98175001D01*
G37*
%TO.C,J1*%
D12*
X139140000Y-104410000D02*
X139140000Y-103030000D01*
X140520000Y-104410000D02*
X139140000Y-104410000D01*
X141790000Y-101650000D02*
X162220000Y-101650000D01*
X141790000Y-104410000D02*
X141790000Y-101650000D01*
X141790000Y-104410000D02*
X162220000Y-104410000D01*
X162220000Y-104410000D02*
X162220000Y-101650000D01*
%TD*%
%LPC*%
D13*
%TO.C,J1*%
X140520000Y-103030000D03*
D14*
X143060000Y-103030000D03*
X145600000Y-103030000D03*
X148140000Y-103030000D03*
X150680000Y-103030000D03*
X153220000Y-103030000D03*
X155760000Y-103030000D03*
X158300000Y-103030000D03*
X160840000Y-103030000D03*
%TD*%
D13*
%TO.C,P1*%
X146339999Y-100240000D03*
D14*
X148629999Y-100240000D03*
X150919999Y-100240000D03*
X153209999Y-100240000D03*
X155499999Y-100240000D03*
X145194999Y-98260000D03*
X147484999Y-98260000D03*
X149774999Y-98260000D03*
X152064999Y-98260000D03*
X154354999Y-98260000D03*
X146339999Y-96280000D03*
X148629999Y-96280000D03*
X150919999Y-96280000D03*
X153209999Y-96280000D03*
X155499999Y-96280000D03*
D15*
X163169999Y-98260000D03*
X138179999Y-98260000D03*
%TD*%
%LPD*%
M02*
